<?xml version="1.0" encoding="UTF-8"?>
<svg width="285px" height="48px" viewBox="0 0 285 48" version="1.1" xmlns="http://www.w3.org/2000/svg" xmlns:xlink="http://www.w3.org/1999/xlink">
    <!-- Generator: Sketch 49 (51002) - http://www.bohemiancoding.com/sketch -->
    <title>Group 4 Copy 2</title>
    <desc>Created with Sketch.</desc>
    <defs></defs>
    <g id="Page-1" stroke="none" stroke-width="1" fill="none" fill-rule="evenodd">
        <g id="Artboard-2" transform="translate(-89.000000, -84.000000)">
            <g id="Group-4-Copy-2" transform="translate(89.000000, 84.000000)">
                <path d="M60.0392,37 C59.7751987,37 59.5508009,36.9076009 59.366,36.7228 C59.1811991,36.5379991 59.0888,36.3136013 59.0888,36.0496 L59.0888,10.2304 C59.0888,9.93999855 59.1811991,9.70900086 59.366,9.5374 C59.5508009,9.36579914 59.7751987,9.28 60.0392,9.28 L63.7616,9.28 C64.0520015,9.28 64.2829991,9.36579914 64.4546,9.5374 C64.6262009,9.70900086 64.712,9.93999855 64.712,10.2304 L64.712,32.248 L77.2652,32.248 C77.5556015,32.248 77.7931991,32.3403991 77.978,32.5252 C78.1628009,32.7100009 78.2552,32.9343987 78.2552,33.1984 L78.2552,36.0496 C78.2552,36.3136013 78.1628009,36.5379991 77.978,36.7228 C77.7931991,36.9076009 77.5556015,37 77.2652,37 L60.0392,37 Z M82.3932,13.042 C82.1291987,13.042 81.9048009,12.9496009 81.72,12.7648 C81.5351991,12.5799991 81.4428,12.3556013 81.4428,12.0916 L81.4428,9.2008 C81.4428,8.91039855 81.5351991,8.67280092 81.72,8.488 C81.9048009,8.30319908 82.1291987,8.2108 82.3932,8.2108 L86.0364,8.2108 C86.3268015,8.2108 86.5643991,8.30319908 86.7492,8.488 C86.9340009,8.67280092 87.0264,8.91039855 87.0264,9.2008 L87.0264,12.0916 C87.0264,12.3556013 86.927401,12.5799991 86.7294,12.7648 C86.531399,12.9496009 86.3004013,13.042 86.0364,13.042 L82.3932,13.042 Z M82.5516,37 C82.2875987,37 82.0632009,36.9076009 81.8784,36.7228 C81.6935991,36.5379991 81.6012,36.3136013 81.6012,36.0496 L81.6012,17.3584 C81.6012,17.0679985 81.6935991,16.8370009 81.8784,16.6654 C82.0632009,16.4937991 82.2875987,16.408 82.5516,16.408 L85.9176,16.408 C86.1816013,16.408 86.4059991,16.5003991 86.5908,16.6852 C86.7756009,16.8700009 86.868,17.0943987 86.868,17.3584 L86.868,36.0496 C86.868,36.3136013 86.7756009,36.5379991 86.5908,36.7228 C86.4059991,36.9076009 86.1816013,37 85.9176,37 L82.5516,37 Z M101.3812,45.712 C99.0315883,45.712 97.1308073,45.3226039 95.6788,44.5438 C94.2267927,43.7649961 93.197203,42.874005 92.59,41.8708 C91.982797,40.867595 91.6792,40.0096036 91.6792,39.2968 C91.6792,39.0327987 91.7715991,38.8150009 91.9564,38.6434 C92.1412009,38.4717991 92.3655987,38.386 92.6296,38.386 L96.154,38.386 C96.3916012,38.386 96.5961991,38.4453994 96.7678,38.5642 C96.9394009,38.6830006 97.0779995,38.9007984 97.1836,39.2176 C97.4740015,39.9040034 97.9095971,40.4913976 98.4904,40.9798 C99.0712029,41.4682024 99.9687939,41.7124 101.1832,41.7124 C102.767208,41.7124 103.928796,41.3626035 104.668,40.663 C105.407204,39.9633965 105.7768,38.7424087 105.7768,37 L105.7768,34.3072 C104.351193,35.9968084 102.331613,36.8416 99.718,36.8416 C96.9723863,36.8416 94.9066069,36.0100083 93.5206,34.3468 C92.1345931,32.6835917 91.3888005,30.4132144 91.2832,27.5356 L91.2436,26.4664 L91.2832,25.3972 C91.3888005,22.5723859 92.141193,20.3020086 93.5404,18.586 C94.939607,16.8699914 96.9987864,16.012 99.718,16.012 C101.117207,16.012 102.344795,16.2759974 103.4008,16.804 C104.456805,17.3320026 105.327997,18.0447955 106.0144,18.9424 L106.0144,17.398 C106.0144,17.1075985 106.113399,16.8700009 106.3114,16.6852 C106.509401,16.5003991 106.740399,16.408 107.0044,16.408 L110.2516,16.408 C110.515601,16.408 110.739999,16.5003991 110.9248,16.6852 C111.109601,16.8700009 111.202,17.1075985 111.202,17.398 L111.2416,36.4852 C111.2416,39.4156147 110.423208,41.6859919 108.7864,43.2964 C107.149592,44.9068081 104.681217,45.712 101.3812,45.712 Z M101.2228,32.644 C102.701207,32.644 103.809996,32.1688048 104.5492,31.2184 C105.288404,30.2679952 105.6976,29.1064069 105.7768,27.7336 C105.8032,27.5223989 105.8164,27.1000032 105.8164,26.4664 C105.8164,25.8327968 105.8032,25.4104011 105.7768,25.1992 C105.6976,23.8263931 105.288404,22.6648048 104.5492,21.7144 C103.809996,20.7639952 102.701207,20.2888 101.2228,20.2888 C98.3715857,20.2888 96.8668008,22.0311826 96.7084,25.516 L96.6688,26.4664 C96.6688,30.5848206 98.1867848,32.644 101.2228,32.644 Z M117.4388,37 C117.174799,37 116.950401,36.9076009 116.7656,36.7228 C116.580799,36.5379991 116.4884,36.3136013 116.4884,36.0496 L116.4884,9.8344 C116.4884,9.54399855 116.580799,9.31300086 116.7656,9.1414 C116.950401,8.96979914 117.174799,8.884 117.4388,8.884 L121.0424,8.884 C121.332801,8.884 121.563799,8.96979914 121.7354,9.1414 C121.907001,9.31300086 121.9928,9.54399855 121.9928,9.8344 L121.9928,18.8632 C123.576808,16.9623905 125.701987,16.012 128.3684,16.012 C130.797212,16.012 132.737593,16.810592 134.1896,18.4078 C135.641607,20.005008 136.3676,22.1763863 136.3676,24.922 L136.3676,36.0496 C136.3676,36.3136013 136.281801,36.5379991 136.1102,36.7228 C135.938599,36.9076009 135.707601,37 135.4172,37 L131.8136,37 C131.523199,37 131.285601,36.9076009 131.1008,36.7228 C130.915999,36.5379991 130.8236,36.3136013 130.8236,36.0496 L130.8236,25.1596 C130.8236,23.6283923 130.447404,22.4338043 129.695,21.5758 C128.942596,20.7177957 127.866807,20.2888 126.4676,20.2888 C125.121193,20.2888 124.038804,20.7243956 123.2204,21.5956 C122.401996,22.4668044 121.9928,23.6547925 121.9928,25.1596 L121.9928,36.0496 C121.9928,36.3136013 121.907001,36.5379991 121.7354,36.7228 C121.563799,36.9076009 121.332801,37 121.0424,37 L117.4388,37 Z M150.4848,37 C148.082388,37 146.274006,36.3730063 145.0596,35.119 C143.845194,33.8649937 143.238,32.0236121 143.238,29.5948 L143.238,20.6452 L140.1096,20.6452 C139.845599,20.6452 139.621201,20.5528009 139.4364,20.368 C139.251599,20.1831991 139.1592,19.9588013 139.1592,19.6948 L139.1592,17.3584 C139.1592,17.0943987 139.251599,16.8700009 139.4364,16.6852 C139.621201,16.5003991 139.845599,16.408 140.1096,16.408 L143.238,16.408 L143.238,9.8344 C143.238,9.54399855 143.330399,9.31300086 143.5152,9.1414 C143.700001,8.96979914 143.924399,8.884 144.1884,8.884 L147.4752,8.884 C147.765601,8.884 147.996599,8.96979914 148.1682,9.1414 C148.339801,9.31300086 148.4256,9.54399855 148.4256,9.8344 L148.4256,16.408 L153.3756,16.408 C153.639601,16.408 153.863999,16.5003991 154.0488,16.6852 C154.233601,16.8700009 154.326,17.0943987 154.326,17.3584 L154.326,19.6948 C154.326,19.9588013 154.233601,20.1831991 154.0488,20.368 C153.863999,20.5528009 153.639601,20.6452 153.3756,20.6452 L148.4256,20.6452 L148.4256,29.1592 C148.4256,30.2944057 148.623598,31.1523971 149.0196,31.7332 C149.415602,32.3140029 150.062396,32.6044 150.96,32.6044 L153.732,32.6044 C154.022401,32.6044 154.253399,32.6901991 154.425,32.8618 C154.596601,33.0334009 154.6824,33.2643985 154.6824,33.5548 L154.6824,36.0496 C154.6824,36.3136013 154.596601,36.5379991 154.425,36.7228 C154.253399,36.9076009 154.022401,37 153.732,37 L150.4848,37 Z M159.1372,37 C158.873199,37 158.648801,36.9076009 158.464,36.7228 C158.279199,36.5379991 158.1868,36.3136013 158.1868,36.0496 L158.1868,17.3584 C158.1868,17.0679985 158.279199,16.8370009 158.464,16.6654 C158.648801,16.4937991 158.873199,16.408 159.1372,16.408 L162.424,16.408 C162.714401,16.408 162.945399,16.4937991 163.117,16.6654 C163.288601,16.8370009 163.3744,17.0679985 163.3744,17.3584 L163.3744,18.982 C164.984808,17.0019901 167.189186,16.012 169.9876,16.012 C172.416412,16.012 174.343593,16.8039921 175.7692,18.388 C177.194807,19.9720079 177.9076,22.1499861 177.9076,24.922 L177.9076,36.0496 C177.9076,36.3136013 177.821801,36.5379991 177.6502,36.7228 C177.478599,36.9076009 177.247601,37 176.9572,37 L173.3932,37 C173.129199,37 172.904801,36.9076009 172.72,36.7228 C172.535199,36.5379991 172.4428,36.3136013 172.4428,36.0496 L172.4428,25.1596 C172.4428,23.6283923 172.066604,22.4338043 171.3142,21.5758 C170.561796,20.7177957 169.486007,20.2888 168.0868,20.2888 C166.740393,20.2888 165.658004,20.7243956 164.8396,21.5956 C164.021196,22.4668044 163.612,23.6547925 163.612,25.1596 L163.612,36.0496 C163.612,36.3136013 163.526201,36.5379991 163.3546,36.7228 C163.182999,36.9076009 162.952001,37 162.6616,37 L159.1372,37 Z M183.7088,13.042 C183.444799,13.042 183.220401,12.9496009 183.0356,12.7648 C182.850799,12.5799991 182.7584,12.3556013 182.7584,12.0916 L182.7584,9.2008 C182.7584,8.91039855 182.850799,8.67280092 183.0356,8.488 C183.220401,8.30319908 183.444799,8.2108 183.7088,8.2108 L187.352,8.2108 C187.642401,8.2108 187.879999,8.30319908 188.0648,8.488 C188.249601,8.67280092 188.342,8.91039855 188.342,9.2008 L188.342,12.0916 C188.342,12.3556013 188.243001,12.5799991 188.045,12.7648 C187.846999,12.9496009 187.616001,13.042 187.352,13.042 L183.7088,13.042 Z M183.8672,37 C183.603199,37 183.378801,36.9076009 183.194,36.7228 C183.009199,36.5379991 182.9168,36.3136013 182.9168,36.0496 L182.9168,17.3584 C182.9168,17.0679985 183.009199,16.8370009 183.194,16.6654 C183.378801,16.4937991 183.603199,16.408 183.8672,16.408 L187.2332,16.408 C187.497201,16.408 187.721599,16.5003991 187.9064,16.6852 C188.091201,16.8700009 188.1836,17.0943987 188.1836,17.3584 L188.1836,36.0496 C188.1836,36.3136013 188.091201,36.5379991 187.9064,36.7228 C187.721599,36.9076009 187.497201,37 187.2332,37 L183.8672,37 Z M194.3412,37 C194.077199,37 193.852801,36.9076009 193.668,36.7228 C193.483199,36.5379991 193.3908,36.3136013 193.3908,36.0496 L193.3908,17.3584 C193.3908,17.0679985 193.483199,16.8370009 193.668,16.6654 C193.852801,16.4937991 194.077199,16.408 194.3412,16.408 L197.628,16.408 C197.918401,16.408 198.149399,16.4937991 198.321,16.6654 C198.492601,16.8370009 198.5784,17.0679985 198.5784,17.3584 L198.5784,18.982 C200.188808,17.0019901 202.393186,16.012 205.1916,16.012 C207.620412,16.012 209.547593,16.8039921 210.9732,18.388 C212.398807,19.9720079 213.1116,22.1499861 213.1116,24.922 L213.1116,36.0496 C213.1116,36.3136013 213.025801,36.5379991 212.8542,36.7228 C212.682599,36.9076009 212.451601,37 212.1612,37 L208.5972,37 C208.333199,37 208.108801,36.9076009 207.924,36.7228 C207.739199,36.5379991 207.6468,36.3136013 207.6468,36.0496 L207.6468,25.1596 C207.6468,23.6283923 207.270604,22.4338043 206.5182,21.5758 C205.765796,20.7177957 204.690007,20.2888 203.2908,20.2888 C201.944393,20.2888 200.862004,20.7243956 200.0436,21.5956 C199.225196,22.4668044 198.816,23.6547925 198.816,25.1596 L198.816,36.0496 C198.816,36.3136013 198.730201,36.5379991 198.5586,36.7228 C198.386999,36.9076009 198.156001,37 197.8656,37 L194.3412,37 Z M227.4268,45.712 C225.077188,45.712 223.176407,45.3226039 221.7244,44.5438 C220.272393,43.7649961 219.242803,42.874005 218.6356,41.8708 C218.028397,40.867595 217.7248,40.0096036 217.7248,39.2968 C217.7248,39.0327987 217.817199,38.8150009 218.002,38.6434 C218.186801,38.4717991 218.411199,38.386 218.6752,38.386 L222.1996,38.386 C222.437201,38.386 222.641799,38.4453994 222.8134,38.5642 C222.985001,38.6830006 223.123599,38.9007984 223.2292,39.2176 C223.519601,39.9040034 223.955197,40.4913976 224.536,40.9798 C225.116803,41.4682024 226.014394,41.7124 227.2288,41.7124 C228.812808,41.7124 229.974396,41.3626035 230.7136,40.663 C231.452804,39.9633965 231.8224,38.7424087 231.8224,37 L231.8224,34.3072 C230.396793,35.9968084 228.377213,36.8416 225.7636,36.8416 C223.017986,36.8416 220.952207,36.0100083 219.5662,34.3468 C218.180193,32.6835917 217.434401,30.4132144 217.3288,27.5356 L217.2892,26.4664 L217.3288,25.3972 C217.434401,22.5723859 218.186793,20.3020086 219.586,18.586 C220.985207,16.8699914 223.044386,16.012 225.7636,16.012 C227.162807,16.012 228.390395,16.2759974 229.4464,16.804 C230.502405,17.3320026 231.373597,18.0447955 232.06,18.9424 L232.06,17.398 C232.06,17.1075985 232.158999,16.8700009 232.357,16.6852 C232.555001,16.5003991 232.785999,16.408 233.05,16.408 L236.2972,16.408 C236.561201,16.408 236.785599,16.5003991 236.9704,16.6852 C237.155201,16.8700009 237.2476,17.1075985 237.2476,17.398 L237.2872,36.4852 C237.2872,39.4156147 236.468808,41.6859919 234.832,43.2964 C233.195192,44.9068081 230.726817,45.712 227.4268,45.712 Z M227.2684,32.644 C228.746807,32.644 229.855596,32.1688048 230.5948,31.2184 C231.334004,30.2679952 231.7432,29.1064069 231.8224,27.7336 C231.8488,27.5223989 231.862,27.1000032 231.862,26.4664 C231.862,25.8327968 231.8488,25.4104011 231.8224,25.1992 C231.7432,23.8263931 231.334004,22.6648048 230.5948,21.7144 C229.855596,20.7639952 228.746807,20.2888 227.2684,20.2888 C224.417186,20.2888 222.912401,22.0311826 222.754,25.516 L222.7144,26.4664 C222.7144,30.5848206 224.232385,32.644 227.2684,32.644 Z" id="Lightning-Copy-3" fill="#262D3F"></path>
                <path d="M247.1484,37 C246.937199,37 246.745801,36.9142009 246.5742,36.7426 C246.402599,36.5709991 246.3168,36.3796011 246.3168,36.1684 C246.3168,36.0099992 246.33,35.8912004 246.3564,35.812 L255.5832,10.4284 C255.847201,9.66279617 256.375196,9.28 257.1672,9.28 L263.3448,9.28 C264.136804,9.28 264.664799,9.66279617 264.9288,10.4284 L274.1556,35.812 C274.182,35.8912004 274.1952,36.0099992 274.1952,36.1684 C274.1952,36.3796011 274.109401,36.5709991 273.9378,36.7426 C273.766199,36.9142009 273.574801,37 273.3636,37 L268.2156,37 C267.581997,37 267.133201,36.7096029 266.8692,36.1288 L265.4436,32.2876 L255.0684,32.2876 L253.6428,36.1288 C253.378799,36.7096029 252.930003,37 252.2964,37 L247.1484,37 Z M256.7316,26.3476 L263.7804,26.3476 L260.256,16.2496 L256.7316,26.3476 Z M278.1748,37 C277.910799,37 277.679801,36.901001 277.4818,36.703 C277.283799,36.504999 277.1848,36.2740013 277.1848,36.01 L277.1848,10.27 C277.1848,9.97959855 277.283799,9.74200092 277.4818,9.5572 C277.679801,9.37239908 277.910799,9.28 278.1748,9.28 L283.8376,9.28 C284.128001,9.28 284.365599,9.37239908 284.5504,9.5572 C284.735201,9.74200092 284.8276,9.97959855 284.8276,10.27 L284.8276,36.01 C284.8276,36.2740013 284.735201,36.504999 284.5504,36.703 C284.365599,36.901001 284.128001,37 283.8376,37 L278.1748,37 Z" id="AI-Copy-3" fill="#4FD4D6"></path>
                <path d="M47.9656517,23.5559197 C48.0971067,27.205286 48.1271781,38.2783694 42.6215316,43.3016472 C38.9511005,46.6495801 32.7443603,48.2091305 23.9995927,47.9775414 C15.2556843,48.2091305 9.04808492,46.6495801 5.37765386,43.3016472 C-0.127992725,38.2783694 -0.0970621264,27.205286 0.0343929185,23.5559197 C0.16498878,19.9065534 0.358305023,10.7385659 5.37765386,5.36974245 C10.3978619,0 23.9995927,0 23.9995927,0 C23.9995927,0 37.6021827,0 42.6215316,5.36974245 C47.6417396,10.7385659 47.8341966,19.9065534 47.9656517,23.5559197 Z M30.29072,21.0030545 L25.73392,21.0030545 L24.40432,7.77241818 C24.37232,7.44632727 24.14832,7.1666 23.82992,7.05378182 C23.37072,6.88996364 22.86032,7.1156 22.69232,7.55914545 L16.05552,24.9362364 C16.01872,25.0305091 15.99952,25.1309636 15.99952,25.2314182 C15.99952,25.7043273 16.39632,26.0891455 16.88592,26.0891455 L21.44112,26.0891455 L22.77072,39.3182364 C22.80432,39.6458727 23.02672,39.9240545 23.34672,40.0384182 C23.80592,40.2022364 24.31472,39.9750545 24.48432,39.5315091 L31.12112,22.1559636 C31.15792,22.0601455 31.17712,21.9596909 31.17712,21.8592364 C31.17712,21.3863273 30.78032,21.0030545 30.29072,21.0030545 Z" id="Combined-Shape" fill="#4FD4D6"></path>
                <g id="Page-1-Copy-6" transform="translate(16.000000, 7.000000)"></g>
            </g>
        </g>
    </g>
</svg>